<svg xmlns="http://www.w3.org/2000/svg" xmlns:xlink="http://www.w3.org/1999/xlink" viewBox="0 0 192 192" width="192" height="192" preserveAspectRatio="xMidYMid meet" style="width: 100%; height: 100%; transform: translate3d(0px, 0px, 0px); content-visibility: visible;" id="Setting">
  <defs>
    <clipPath id="__lottie_element_12944">
      <rect width="192" height="192" x="0" y="0"/>
    </clipPath>
  </defs>
  <g clip-path="url(#__lottie_element_12944)">
    <g transform="matrix(4.611110210418701,0,0,4.611110210418701,59.11111831665039,59.11111831665039)" opacity="1" style="display: block;">
      <g opacity="1" transform="matrix(1,0,0,1,8,8)">
        <path stroke-linecap="round" stroke-linejoin="round" fill-opacity="0" stroke="rgb(7,5,6)" stroke-opacity="1" stroke-width="2" d=" M3,0 C3,1.656999945640564 1.656999945640564,3 0,3 C-1.656999945640564,3 -3,1.656999945640564 -3,0 C-3,-1.656999945640564 -1.656999945640564,-3 0,-3 C1.656999945640564,-3 3,-1.656999945640564 3,0z"/>
      </g>
    </g>
    <g transform="matrix(1.598419189453125,4.325204372406006,-4.325204372406006,1.598419189453125,134.17498779296875,13.069267272949219)" opacity="1" style="display: block;">
      <g opacity="1" transform="matrix(1,0,0,1,14,14)">
        <path stroke-linecap="round" stroke-linejoin="round" fill-opacity="0" stroke="rgb(7,5,6)" stroke-opacity="1" stroke-width="2" d=" M9,-1.5 C9,-1.5 7.11299991607666,-2.128999948501587 7.11299991607666,-2.128999948501587 C6.535999774932861,-2.321000099182129 6.263000011444092,-2.9800000190734863 6.534999847412109,-3.5250000953674316 C6.534999847412109,-3.5250000953674316 7.425000190734863,-5.302999973297119 7.425000190734863,-5.302999973297119 C7.425000190734863,-5.302999973297119 5.303999900817871,-7.425000190734863 5.303999900817871,-7.425000190734863 C5.303999900817871,-7.425000190734863 3.5239999294281006,-6.534999847412109 3.5239999294281006,-6.534999847412109 C2.9800000190734863,-6.263000011444092 2.321000099182129,-6.535999774932861 2.128999948501587,-7.11299991607666 C2.128999948501587,-7.11299991607666 1.5,-9 1.5,-9 C1.5,-9 -1.5,-9 -1.5,-9 C-1.5,-9 -2.128999948501587,-7.11299991607666 -2.128999948501587,-7.11299991607666 C-2.321000099182129,-6.535999774932861 -2.9800000190734863,-6.263000011444092 -3.5250000953674316,-6.534999847412109 C-3.5250000953674316,-6.534999847412109 -5.302999973297119,-7.425000190734863 -5.302999973297119,-7.425000190734863 C-5.302999973297119,-7.425000190734863 -7.425000190734863,-5.302999973297119 -7.425000190734863,-5.302999973297119 C-7.425000190734863,-5.302999973297119 -6.534999847412109,-3.5250000953674316 -6.534999847412109,-3.5250000953674316 C-6.263000011444092,-2.9800000190734863 -6.535999774932861,-2.321000099182129 -7.11299991607666,-2.128999948501587 C-7.11299991607666,-2.128999948501587 -9,-1.5 -9,-1.5 C-9,-1.5 -9,1.5 -9,1.5 C-9,1.5 -7.113999843597412,2.128999948501587 -7.113999843597412,2.128999948501587 C-6.535999774932861,2.321000099182129 -6.263000011444092,2.9800000190734863 -6.534999847412109,3.5239999294281006 C-6.534999847412109,3.5239999294281006 -7.425000190734863,5.302999973297119 -7.425000190734863,5.302999973297119 C-7.425000190734863,5.302999973297119 -5.302999973297119,7.425000190734863 -5.302999973297119,7.425000190734863 C-5.302999973297119,7.425000190734863 -3.5250000953674316,6.534999847412109 -3.5250000953674316,6.534999847412109 C-2.9800000190734863,6.263000011444092 -2.321000099182129,6.535999774932861 -2.128999948501587,7.11299991607666 C-2.128999948501587,7.11299991607666 -1.5,9 -1.5,9 C-1.5,9 1.5,9 1.5,9 C1.5,9 2.128999948501587,7.11299991607666 2.128999948501587,7.11299991607666 C2.321000099182129,6.535999774932861 2.9800000190734863,6.263000011444092 3.5239999294281006,6.534999847412109 C3.5239999294281006,6.534999847412109 5.303999900817871,7.425000190734863 5.303999900817871,7.425000190734863 C5.303999900817871,7.425000190734863 7.425000190734863,5.302999973297119 7.425000190734863,5.302999973297119 C7.425000190734863,5.302999973297119 6.534999847412109,3.5239999294281006 6.534999847412109,3.5239999294281006 C6.263999938964844,2.9800000190734863 6.535999774932861,2.321000099182129 7.11299991607666,2.128999948501587 C7.11299991607666,2.128999948501587 9,1.5 9,1.5 C9,1.5 9,-1.5 9,-1.5z"/>
      </g>
    </g>
  </g>
</svg>