<svg xmlns="http://www.w3.org/2000/svg" xmlns:xlink="http://www.w3.org/1999/xlink" viewBox="0 0 512 512" width="512" height="512" preserveAspectRatio="xMidYMid meet" style="width: 100%; height: 100%; transform: translate3d(0px, 0px, 0px); content-visibility: visible;" id="Antenna">
  <defs>
    <clipPath id="__lottie_element_24783">
      <rect width="512" height="512" x="0" y="0"/>
    </clipPath>
  </defs>
  <g clip-path="url(#__lottie_element_24783)">
    <g transform="matrix(1,0,0,1,185.7050018310547,280.87298583984375)" opacity="1" style="display: block;">
      <g opacity="1" transform="matrix(1,0,0,1,48.560001373291016,55.790000915527344)">
        <path fill="rgb(43,68,93)" fill-opacity="1" d=" M-16.57200050354004,-52.75899887084961 C-26.283000946044922,-22.797000885009766 -35.994998931884766,7.164000034332275 -45.70600128173828,37.125999450683594 C-47.03200149536133,41.21799850463867 -48.310001373291016,45.893001556396484 -46.17599868774414,49.62799835205078 C-43.303001403808594,54.65800094604492 -35.564998626708984,55.540000915527344 -30.885000228881836,52.12699890136719 C-26.20400047302246,48.7140007019043 -23.836999893188477,42.277000427246094 -21.687999725341797,36.89799880981445 C-15.194999694824219,20.648000717163086 -8.70199966430664,4.3979997634887695 -2.2100000381469727,-11.85200023651123 C4.999000072479248,4.677999973297119 11.055999755859375,20.054000854492188 18.263999938964844,36.58399963378906 C20.131000518798828,40.8650016784668 23.224000930786133,48.715999603271484 26.535999298095703,52.007999420166016 C29.849000930786133,55.29999923706055 35.13399887084961,55.51499938964844 39.2859992980957,53.37799835205078 C48.308998107910156,48.73400115966797 43.26499938964844,36.393001556396484 39.159000396728516,26.795000076293945 C29.30699920654297,3.7639999389648438 18.68600082397461,-20.035999298095703 8.833999633789062,-43.06700134277344 C3.5450000762939453,-55.43000030517578 -6.6539998054504395,-55.540000915527344 -16.57200050354004,-52.75899887084961z"/>
      </g>
    </g>
    <g transform="matrix(0.9983741044998169,-0.057000815868377686,0.057000815868377686,0.9983741044998169,136.8365478515625,114.56202697753906)" opacity="1" style="display: block;">
      <g opacity="1" transform="matrix(1,0,0,1,111.4280014038086,119.27300262451172)">
        <path fill="rgb(58,92,125)" fill-opacity="1" d=" M-51.38199996948242,55.69499969482422 C-100.02300262451172,7.053999900817871 -111.1780014038086,-60.327999114990234 -67.36100006103516,-104.14600372314453 C-61.94599914550781,-109.56099700927734 -57.875999450683594,-49.70100021362305 -9.234999656677246,-1.059000015258789 C39.40700149536133,47.582000732421875 111.1780014038086,70.04199981689453 106.822998046875,73.63700103759766 C63.305999755859375,109.56099700927734 -2.740999937057495,104.33599853515625 -51.38199996948242,55.69499969482422z"/>
      </g>
      <g opacity="1" transform="matrix(1,0,0,1,130.17799377441406,104.83699798583984)">
        <path fill="rgb(81,171,236)" fill-opacity="1" d=" M-29.900999069213867,29.900999069213867 C-78.54199981689453,-18.739999771118164 -104.58699798583984,-71.55899810791016 -88.072998046875,-88.072998046875 C-71.55899810791016,-104.58699798583984 -18.739999771118164,-78.54299926757812 29.902000427246094,-29.902000427246094 C78.54299926757812,18.739999771118164 104.58699798583984,71.55899810791016 88.072998046875,88.072998046875 C71.55899810791016,104.58699798583984 18.739999771118164,78.54199981689453 -29.900999069213867,29.900999069213867z"/>
      </g>
    </g>
    <g transform="matrix(0.9908286333084106,-0.13512428104877472,0.13512428104877472,0.9908286333084106,248.28224182128906,149.6700897216797)" opacity="1" style="display: block;">
      <g opacity="1" transform="matrix(1,0,0,1,35.856998443603516,37.64699935913086)">
        <path fill="rgb(60,93,123)" fill-opacity="1" d=" M-22.020000457763672,6.820000171661377 C-25.923999786376953,10.723999977111816 -29.655000686645508,14.862000465393066 -32.63100051879883,19.51300048828125 C-35.606998443603516,24.163000106811523 -35.106998443603516,30.12299919128418 -31.25,34.073001861572266 C-28.04400062561035,37.35499954223633 -23.13599967956543,37.39699935913086 -18.99799919128418,35.415000915527344 C-14.255000114440918,33.141998291015625 15.805999755859375,-2.6059999465942383 34.47100067138672,-24.347000122070312 C34.96500015258789,-24.92300033569336 35.481998443603516,-25.55299949645996 35.54199981689453,-26.30900001525879 C35.606998443603516,-27.14299964904785 35.09700012207031,-27.905000686645508 34.56800079345703,-28.55299949645996 C30.259000778198242,-33.821998596191406 28.881000518798828,-37.39699935913086 25.562000274658203,-34.801998138427734 C9.708999633789062,-22.405000686645508 -5.166999816894531,-10.032999992370605 -22.020000457763672,6.820000171661377z"/>
      </g>
    </g>
    <g transform="matrix(0.9908286333084106,-0.13512428104877472,0.13512428104877472,0.9908286333084106,297.76275634765625,112.54659271240234)" opacity="1" style="display: block;">
      <g opacity="1" transform="matrix(1,0,0,1,22.833999633789062,22.833999633789062)">
        <path fill="rgb(255,162,52)" fill-opacity="1" d=" M-22.583999633789062,0 C-22.583999633789062,-12.472999572753906 -12.472999572753906,-22.583999633789062 0,-22.583999633789062 C12.472999572753906,-22.583999633789062 22.583999633789062,-12.472999572753906 22.583999633789062,0 C22.583999633789062,12.472999572753906 12.472999572753906,22.583999633789062 0,22.583999633789062 C-12.472999572753906,22.583999633789062 -22.583999633789062,12.472999572753906 -22.583999633789062,0z"/>
      </g>
    </g>
  </g>
</svg>