<svg xmlns="http://www.w3.org/2000/svg" style="display: none;">
  
  <symbol id="home" viewBox="0 0 24 24">
      <path d="M20 9H4V21H20V9Z" fill="black"/>
      <path d="M2 10H22L16 5L12 2L2 10Z" fill="#B1B2B5"/>
      <path d="M2 10H22L16 5L12 2L2 10Z" fill="black"/>
  </symbol>

  <symbol id="user" viewBox="27 0 24 24">
    <path d="M41 13L38.5394 17.5209L37.3706 21.5668L40.6973 20.9375L46.5414 20.7576L44.9583 15.9251L43 13M39.7982 13.0254L39.5284 13.2952M47 9C47 11.7614 44.5376 14 41.5 14C38.4624 14 36 11.7614 36 9C36 6.23858 38.4624 4 41.5 4C44.5376 4 47 6.23858 47 9Z"
          stroke="currentColor" stroke-width="2" fill="none"/>
  </symbol>

  <symbol id="settings" viewBox="0 0 20 20">
      <path d="M8.0635 1.88247V3.95881M7.93939 0.97406L11.2898 1.75269L11.4139 3.69925M15.1365 5.38628L18.1146 4.86719M17.246 10.1878L18.6109 11.0962L18.1146 13.8214L17.246 13.4321M16.6255 6.81375L17.4941 5.90537M13.1511 15.8977L12.6547 17.9741L10.7934 17.3252L11.1657 16.0275M6.82262 15.3786L3.47226 16.1573L3.34815 14.3405L4.71313 14.4702M3.72042 10.058L1.61093 7.20307L2.35546 6.94353L2.85181 7.59238M10.7934 6.81375L9.36319 10.1878L12.6547 11.0962M18.0708 9.74589C18.0708 13.7316 14.6723 16.9627 10.48 16.9627C6.28771 16.9627 2.88921 13.7316 2.88921 9.74589C2.88921 5.76018 6.28771 2.52913 10.48 2.52913C14.6723 2.52913 18.0708 5.76018 18.0708 9.74589Z" 
           stroke="currentColor" stroke-width="2" fill="none"/>
  </symbol>
 

</svg>
